<svg width="330" height="157" viewBox="0 0 330 157" fill="none" xmlns="http://www.w3.org/2000/svg">
<path d="M106.724 84.9496C92.3893 84.9496 81.798 77.175 81.798 64.961C81.798 52.7471 92.3886 45 106.724 45C117.584 45 126.286 49.4389 129.761 56.81L120.317 59.554C118.158 55.0344 112.998 52.4249 106.724 52.4249C98.3257 52.4249 91.8835 57.1058 91.8835 64.9613C91.8835 72.8168 98.3257 77.5245 106.724 77.5245C112.998 77.5245 118.158 74.8881 120.317 70.3686L129.761 73.1126C126.287 80.4839 117.585 84.9496 106.724 84.9496ZM166.288 84.9496C151.954 84.9496 141.362 77.148 141.362 64.961C141.362 52.7475 151.953 45 166.288 45C180.589 45 191.179 52.7478 191.179 64.961C191.179 77.1477 180.589 84.9496 166.288 84.9496ZM166.288 77.5515C174.686 77.5515 181.129 72.8436 181.129 64.9614C181.129 57.106 174.686 52.425 166.288 52.425C157.89 52.425 151.448 57.1059 151.448 64.9614C151.448 72.8437 157.89 77.5515 166.288 77.5515ZM232.869 84.4116L220.187 67.3017H217.253V84.4116H207.134V45.5377H224.807C235.836 45.5377 240.491 50.7297 240.491 57.1594C240.491 62.3784 236.781 65.768 230.17 66.8979L244.842 84.4113H232.868L232.869 84.4116ZM217.252 52.2373V61.5185H223.222C228.618 61.5185 230.811 59.6892 230.811 56.8913C230.811 54.1204 228.618 52.2373 223.222 52.2373H217.252Z" fill="url(#paint0_linear_156_61)"/>
<path d="M89.0387 115.967C84.8746 115.967 81.798 113.442 81.798 109.475C81.798 105.507 84.8744 102.991 89.0387 102.991C92.1935 102.991 94.7212 104.433 95.7305 106.827L92.9872 107.718C92.3601 106.25 90.8611 105.403 89.0387 105.403C86.5991 105.403 84.7277 106.923 84.7277 109.475C84.7277 112.026 86.5991 113.555 89.0387 113.555C90.8611 113.555 92.3601 112.699 92.9872 111.231L95.7305 112.122C94.7214 114.517 92.1936 115.967 89.0387 115.967ZM106.341 115.967C102.177 115.967 99.1007 113.433 99.1007 109.475C99.1007 105.507 102.177 102.991 106.341 102.991C110.496 102.991 113.572 105.507 113.572 109.475C113.572 113.433 110.496 115.967 106.341 115.967ZM106.341 113.564C108.781 113.564 110.652 112.035 110.652 109.475C110.652 106.923 108.781 105.403 106.341 105.403C103.902 105.403 102.03 106.923 102.03 109.475C102.03 112.035 103.902 113.564 106.341 113.564ZM134.431 115.792H131.502L130.571 106.276L126.985 115.792H125.084L121.498 106.276L120.558 115.792H117.619L118.804 103.165H122.998L126.015 111.091L129.072 103.165H133.266L134.431 115.792ZM145.327 103.165C148.099 103.165 149.824 105.001 149.824 107.246C149.824 109.544 148.099 111.266 145.327 111.266H142.378V115.792H139.438V103.165H145.326L145.327 103.165ZM144.837 109.072C146.306 109.072 146.992 108.347 146.992 107.211C146.992 106.119 146.306 105.359 144.837 105.359H142.377V109.072H144.837ZM162.433 105.473H157.182V108.339H161.836V110.62H157.182V113.477H162.433V115.793H154.223V103.166H162.433V105.473V105.473ZM175.601 103.165V105.472H172.241V115.792H169.331V105.472H165.951V103.165H175.601H175.601ZM179.755 115.792V103.165H182.695V115.792H179.755ZM194.55 115.967C190.386 115.967 187.309 113.442 187.309 109.475C187.309 105.507 190.386 102.991 194.55 102.991C197.705 102.991 200.232 104.433 201.242 106.827L198.498 107.718C197.871 106.25 196.372 105.403 194.55 105.403C192.11 105.403 190.239 106.923 190.239 109.475C190.239 112.026 192.11 113.555 194.55 113.555C196.372 113.555 197.871 112.699 198.498 111.231L201.242 112.122C200.233 114.517 197.705 115.967 194.55 115.967ZM205.582 115.792V103.165H208.521V115.792H205.582ZM219.505 101.986L222.072 98.7705L223.463 99.6531L221.239 101.986H219.505ZM220.376 115.967C216.212 115.967 213.136 113.433 213.136 109.475C213.136 105.507 216.212 102.991 220.376 102.991C224.531 102.991 227.607 105.507 227.607 109.475C227.607 113.433 224.531 115.967 220.376 115.967ZM220.376 113.564C222.816 113.564 224.687 112.035 224.687 109.475C224.687 106.923 222.816 105.403 220.376 105.403C217.937 105.403 216.065 106.923 216.065 109.475C216.065 112.035 217.937 113.564 220.376 113.564ZM241.912 103.165H244.842V115.792H241.442L235.171 106.766V115.792H232.242V103.165H235.602L241.912 112.14V103.165H241.912Z" fill="url(#paint1_linear_156_61)"/>
<path d="M86.8184 132.869H91.2275C91.5341 132.869 91.6801 133.104 91.6801 133.338C91.6801 133.572 91.5341 133.793 91.2275 133.793H89.5632V140.723C89.5632 141.013 89.315 141.164 89.0668 141.164C88.8186 141.164 88.585 141.013 88.585 140.723V133.793H86.8184C86.5118 133.793 86.3658 133.572 86.3658 133.338C86.3658 133.104 86.5118 132.869 86.8184 132.869ZM102.06 140.792L101.491 139.042H98.7751L98.235 140.765C98.0452 141.357 97.0816 141.178 97.286 140.572C98.0452 138.16 98.7897 135.708 99.5343 133.269C99.6219 133.007 99.8555 132.869 100.089 132.869C100.308 132.869 100.542 133.007 100.629 133.269L102.951 140.572C103.111 141.095 102.25 141.385 102.06 140.792ZM100.118 134.73L99.0671 138.119H101.213C100.848 136.962 100.512 135.97 100.118 134.73ZM109.199 140.723V133.31C109.199 133.021 109.432 132.869 109.666 132.869C109.9 132.869 110.148 133.021 110.148 133.31V140.241H113.053C113.374 140.241 113.55 140.475 113.55 140.709C113.55 140.944 113.374 141.164 113.053 141.164H109.681C109.389 141.164 109.199 140.944 109.199 140.723ZM119.447 140.723V133.31C119.447 133.021 119.681 132.869 119.915 132.869C120.148 132.869 120.396 133.021 120.396 133.31V140.241H123.302C123.623 140.241 123.798 140.475 123.798 140.709C123.798 140.944 123.623 141.164 123.302 141.164H119.929C119.637 141.164 119.447 140.944 119.447 140.723ZM129.667 140.682V133.352C129.667 133.035 129.93 132.869 130.178 132.869H133.536C133.857 132.869 134.017 133.09 134.017 133.324C134.017 133.558 133.857 133.793 133.536 133.793H130.645V136.466H132.937C133.273 136.466 133.434 136.686 133.434 136.92C133.434 137.155 133.258 137.403 132.937 137.403H130.645V140.255H133.536C133.842 140.255 134.003 140.489 134.003 140.709C134.003 140.944 133.842 141.164 133.536 141.164H130.178C129.93 141.164 129.667 141.081 129.667 140.682ZM141.361 138.753V140.723C141.361 141.026 141.113 141.164 140.879 141.164C140.631 141.164 140.397 141.026 140.397 140.723V133.324C140.397 133.049 140.558 132.869 140.879 132.869H142.85C143.405 132.869 145.157 133.021 145.157 134.881V136.603C145.157 137.651 144.748 138.312 143.813 138.601L144.806 140.489C145.011 140.861 144.704 141.164 144.383 141.164C144.208 141.164 143.989 141.054 143.872 140.82L142.806 138.753H141.361ZM144.193 136.603V134.881C144.193 134.55 144.062 133.793 142.85 133.793H141.361V137.83H142.718C143.434 137.83 144.193 137.678 144.193 136.603ZM166.457 140.723V134.578L164.135 140.778C164.004 141.123 163.522 141.205 163.376 140.778L161.128 134.578V140.723C161.128 141.013 160.894 141.164 160.646 141.164C160.398 141.164 160.15 141.013 160.15 140.723V133.324C160.15 133.062 160.354 132.869 160.646 132.869H161.113C161.434 132.869 161.61 133.09 161.683 133.297C162.383 135.267 163.026 137.017 163.741 139.001L165.858 133.255C165.931 133.062 166.063 132.869 166.369 132.869H166.953C167.376 132.869 167.435 133.09 167.435 133.31V140.723C167.435 141.013 167.187 141.164 166.938 141.164C166.69 141.164 166.457 141.013 166.457 140.723ZM174.092 140.682V133.352C174.092 133.035 174.355 132.869 174.603 132.869H177.961C178.282 132.869 178.443 133.09 178.443 133.324C178.443 133.558 178.282 133.793 177.961 133.793H175.07V136.466H177.362C177.698 136.466 177.859 136.686 177.859 136.92C177.859 137.155 177.683 137.403 177.362 137.403H175.07V140.255H177.961C178.267 140.255 178.428 140.489 178.428 140.709C178.428 140.944 178.267 141.164 177.961 141.164H174.603C174.355 141.164 174.092 141.081 174.092 140.682ZM187.465 132.842C188.793 132.842 190.21 133.324 190.21 134.743C190.21 135.074 189.976 135.226 189.728 135.226C189.48 135.226 189.217 135.06 189.217 134.743C189.217 134.633 189.144 133.737 187.465 133.737C186.136 133.737 185.552 134.233 185.552 135.418V138.739C185.552 139.938 186.268 140.31 187.465 140.31C188.677 140.31 189.348 139.841 189.348 138.725C189.348 138.408 189.596 138.257 189.83 138.257C190.078 138.257 190.312 138.408 190.312 138.725C190.312 140.585 189.217 141.205 187.465 141.205C185.567 141.205 184.603 140.544 184.603 138.739V135.418C184.603 133.462 185.64 132.842 187.465 132.842ZM201.057 140.792L200.487 139.042H197.772L197.232 140.765C197.042 141.357 196.078 141.178 196.283 140.572C197.042 138.16 197.786 135.708 198.531 133.269C198.619 133.007 198.852 132.869 199.086 132.869C199.305 132.869 199.538 133.007 199.626 133.269L201.947 140.572C202.108 141.095 201.246 141.385 201.057 140.792ZM199.115 134.73L198.064 138.119H200.21C199.845 136.962 199.509 135.97 199.115 134.73ZM198.779 130.431L198.954 129.962C199.188 129.342 200.122 129.576 199.859 130.251L199.699 130.679C199.48 131.299 198.56 131.009 198.779 130.431ZM213.145 133.31V140.723C213.145 141.013 212.911 141.164 212.678 141.164C212.502 141.164 212.269 141.04 212.167 140.861C211.072 138.836 210.254 137.279 209.159 135.239V140.723C209.159 141.013 208.925 141.164 208.677 141.164C208.444 141.164 208.196 141.013 208.196 140.723V133.31C208.196 132.828 208.925 132.801 209.086 133.09L212.167 138.836V133.31C212.167 133.021 212.4 132.869 212.648 132.869C212.897 132.869 213.145 133.021 213.145 133.31ZM219.875 140.737V133.31C219.875 133.021 220.108 132.869 220.342 132.869C220.576 132.869 220.824 133.021 220.824 133.31V140.737C220.824 141.329 219.875 141.329 219.875 140.737ZM230.138 132.842C231.467 132.842 232.883 133.324 232.883 134.743C232.883 135.074 232.649 135.226 232.401 135.226C232.153 135.226 231.89 135.06 231.89 134.743C231.89 134.633 231.817 133.737 230.138 133.737C228.809 133.737 228.225 134.233 228.225 135.418V138.739C228.225 139.938 228.941 140.31 230.138 140.31C231.35 140.31 232.021 139.841 232.021 138.725C232.021 138.408 232.27 138.257 232.503 138.257C232.751 138.257 232.985 138.408 232.985 138.725C232.985 140.585 231.89 141.205 230.138 141.205C228.24 141.205 227.276 140.544 227.276 138.739V135.418C227.276 133.462 228.313 132.842 230.138 132.842ZM239.306 138.725V135.308C239.306 133.655 240.211 132.773 241.963 132.773H242.343C244.08 132.773 245 133.655 245 135.308V138.725C245 140.241 243.934 141.233 242.343 141.233H241.963C240.343 141.233 239.306 140.227 239.306 138.725ZM241.963 140.31H242.343C243.394 140.31 244.022 139.69 244.022 138.725V135.308C244.022 134.233 243.467 133.682 242.343 133.682H241.963C240.854 133.682 240.241 134.247 240.241 135.308V138.725C240.241 139.731 240.912 140.31 241.963 140.31Z" fill="url(#paint2_linear_156_61)"/>
<path d="M15 19.3972L38.6779 15.2807C41.5906 14.9064 44.4094 14.9064 47.2282 15.2807L71 19.4908V52.704L70.8121 52.7976C62.1678 66.2699 46.2886 74.7837 45.1611 75.4387C44.5973 75.8129 43.9396 76 43.1879 76C42.5302 76 41.7785 75.8129 41.0268 75.5322C40.1812 75.0644 21.953 65.5215 15.1879 52.704L15.094 52.4233V19.3972H15ZM38.9597 17.4325L17.255 21.2684V51.9555C23.7383 63.931 41.7785 73.4739 41.9664 73.5675C42.6242 73.8482 43.4698 73.9417 43.9396 73.661L44.0336 73.5675C44.2215 73.4739 60.1946 64.9601 68.745 51.9555V21.2684L46.9463 17.4325C44.4094 17.1518 41.5906 17.0583 38.9597 17.4325Z" fill="url(#paint3_linear_156_61)"/>
<path d="M46.4766 19.9586C45.6309 19.865 44.6913 19.7715 43.7517 19.7715C42.2484 19.7715 40.745 19.7715 39.2417 19.9586L19.886 23.3267V51.2071L19.792 51.3006L19.886 51.3942V51.6749L20.2618 52.2362C21.1074 53.3589 22.047 54.5752 23.1745 55.885C24.3021 57.1948 25.6175 58.4111 26.9329 59.6273C28.1544 60.75 29.4698 61.8727 30.9732 63.089C32.2886 64.1181 33.698 65.1473 35.2014 66.3635C36.6108 67.3927 38.0202 68.4218 39.6175 69.4509C40.3692 69.9187 41.0269 70.3865 41.4967 70.6672L42.9061 71.3221L44.0336 70.5736C50.2349 66.5506 58.9732 60.0951 65.3625 51.7684L65.8323 51.1135V23.3267L46.4766 19.9586ZM33.0403 23.3267L22.141 34.1795V25.1979L33.0403 23.3267ZM22.2349 43.1611L43.4698 22.0169C43.5638 22.0169 43.6578 22.0169 43.7517 22.0169C44.6913 22.0169 45.443 22.1104 46.1947 22.204L48.6376 22.6718L22.2349 48.9617V43.1611ZM25.3356 54.8558L56.3423 23.9816L61.3222 24.8236L28.2484 57.7561C27.2148 56.727 26.1813 55.7914 25.3356 54.8558ZM33.0403 61.8727L63.7651 31.2792V37.0798L36.3289 64.3988C35.1074 63.5568 34.0739 62.7147 33.0403 61.8727ZM63.7651 50.5522C57.5638 58.5046 49.0135 64.8666 43 68.796H42.9061H42.8121C42.5302 68.6089 42.0604 68.3282 41.6846 68.0476L63.7651 46.0614V50.5522Z" fill="url(#paint4_linear_156_61)"/>
<path d="M256 19.3972L279.678 15.2807C282.591 14.9064 285.409 14.9064 288.228 15.2807L312 19.4908V52.704L311.812 52.7976C303.168 66.2699 287.289 74.7837 286.161 75.4387C285.597 75.8129 284.94 76 284.188 76C283.53 76 282.779 75.8129 282.027 75.5322C281.181 75.0644 262.953 65.5215 256.188 52.704L256.094 52.4233V19.3972H256ZM279.96 17.4325L258.255 21.2684V51.9555C264.738 63.931 282.779 73.4739 282.966 73.5675C283.624 73.8482 284.47 73.9417 284.94 73.661L285.034 73.5675C285.221 73.4739 301.195 64.9601 309.745 51.9555V21.2684L287.946 17.4325C285.409 17.1518 282.591 17.0583 279.96 17.4325Z" fill="url(#paint5_linear_156_61)"/>
<path d="M287.477 19.9586C286.631 19.865 285.691 19.7715 284.752 19.7715C283.248 19.7715 281.745 19.7715 280.242 19.9586L260.886 23.3267V51.2071L260.792 51.3006L260.886 51.3942V51.6749L261.262 52.2362C262.107 53.3589 263.047 54.5752 264.175 55.885C265.302 57.1948 266.617 58.4111 267.933 59.6273C269.154 60.75 270.47 61.8727 271.973 63.089C273.289 64.1181 274.698 65.1473 276.201 66.3635C277.611 67.3927 279.02 68.4218 280.617 69.4509C281.369 69.9187 282.027 70.3865 282.497 70.6672L283.906 71.3221L285.034 70.5736C291.235 66.5506 299.973 60.0951 306.362 51.7684L306.832 51.1135V23.3267L287.477 19.9586ZM274.04 23.3267L263.141 34.1795V25.1979L274.04 23.3267ZM263.235 43.1611L284.47 22.0169C284.564 22.0169 284.658 22.0169 284.752 22.0169C285.691 22.0169 286.443 22.1104 287.195 22.204L289.638 22.6718L263.235 48.9617V43.1611ZM266.336 54.8558L297.342 23.9816L302.322 24.8236L269.248 57.7561C268.215 56.727 267.181 55.7914 266.336 54.8558ZM274.04 61.8727L304.765 31.2792V37.0798L277.329 64.3988C276.107 63.5568 275.074 62.7147 274.04 61.8727ZM304.765 50.5522C298.564 58.5046 290.013 64.8666 284 68.796H283.906H283.812C283.53 68.6089 283.06 68.3282 282.685 68.0476L304.765 46.0614V50.5522Z" fill="url(#paint6_linear_156_61)"/>
<defs>
<linearGradient id="paint0_linear_156_61" x1="81.798" y1="45" x2="244.842" y2="45" gradientUnits="userSpaceOnUse">
<stop stop-color="#FFE1BD"/>
<stop offset="0.5" stop-color="#FBF4A1"/>
<stop offset="1" stop-color="#8F5E25"/>
</linearGradient>
<linearGradient id="paint1_linear_156_61" x1="81.798" y1="98.7705" x2="244.842" y2="98.7705" gradientUnits="userSpaceOnUse">
<stop stop-color="#F9A646"/>
<stop offset="0.5" stop-color="#FBF4A1"/>
<stop offset="1" stop-color="#8F5E25"/>
</linearGradient>
<linearGradient id="paint2_linear_156_61" x1="86.3658" y1="129.602" x2="245" y2="129.602" gradientUnits="userSpaceOnUse">
<stop stop-color="#FFB45E"/>
<stop offset="0.5" stop-color="#FBF4A1"/>
<stop offset="1" stop-color="#8F5E25"/>
</linearGradient>
<linearGradient id="paint3_linear_156_61" x1="15" y1="15" x2="71" y2="15" gradientUnits="userSpaceOnUse">
<stop stop-color="#FFA439"/>
<stop offset="0.5" stop-color="#FBF4A1"/>
<stop offset="1" stop-color="#8F5E25"/>
</linearGradient>
<linearGradient id="paint4_linear_156_61" x1="19.792" y1="19.7715" x2="65.8323" y2="19.7715" gradientUnits="userSpaceOnUse">
<stop stop-color="#FFA439"/>
<stop offset="0.5" stop-color="#FBF4A1"/>
<stop offset="1" stop-color="#8F5E25"/>
</linearGradient>
<linearGradient id="paint5_linear_156_61" x1="256" y1="15" x2="312" y2="15" gradientUnits="userSpaceOnUse">
<stop stop-color="#F9E0C4"/>
<stop offset="0.5" stop-color="#FBF4A1"/>
<stop offset="1" stop-color="#8F5E25"/>
</linearGradient>
<linearGradient id="paint6_linear_156_61" x1="260.792" y1="19.7715" x2="306.832" y2="19.7715" gradientUnits="userSpaceOnUse">
<stop stop-color="#F9E0C4"/>
<stop offset="0.5" stop-color="#FBF4A1"/>
<stop offset="1" stop-color="#8F5E25"/>
</linearGradient>
</defs>
</svg>
